<svg width="30" height="30" viewBox="0 0 30 30" fill="none" xmlns="http://www.w3.org/2000/svg">
    <path
        d="M13.375 21.5938C13.625 21.3438 13.745 21.0417 13.735 20.6875C13.7242 20.3333 13.5937 20.0313 13.3437 19.7813L9.8125 16.25H23.75C24.1042 16.25 24.4012 16.13 24.6412 15.89C24.8804 15.6508 25 15.3542 25 15C25 14.6458 24.8804 14.3488 24.6412 14.1087C24.4012 13.8696 24.1042 13.75 23.75 13.75H9.8125L13.375 10.1875C13.625 9.9375 13.75 9.64042 13.75 9.29625C13.75 8.95292 13.625 8.65625 13.375 8.40625C13.125 8.15625 12.8279 8.03125 12.4837 8.03125C12.1404 8.03125 11.8437 8.15625 11.5937 8.40625L5.875 14.125C5.75 14.25 5.66125 14.3854 5.60875 14.5313C5.55708 14.6771 5.53125 14.8333 5.53125 15C5.53125 15.1667 5.55708 15.3229 5.60875 15.4688C5.66125 15.6146 5.75 15.75 5.875 15.875L11.625 21.625C11.8542 21.8542 12.1404 21.9688 12.4837 21.9688C12.8279 21.9688 13.125 21.8438 13.375 21.5938Z"
        fill="currentColor" />
</svg>