<svg width="30" height="30" viewBox="0 0 30 30" fill="none" xmlns="http://www.w3.org/2000/svg">
    <path
        d="M16.625 21.5938C16.375 21.3438 16.255 21.0417 16.265 20.6875C16.2758 20.3333 16.4063 20.0313 16.6563 19.7813L20.1875 16.25H6.25C5.89583 16.25 5.59875 16.13 5.35875 15.89C5.11958 15.6508 5 15.3542 5 15C5 14.6458 5.11958 14.3488 5.35875 14.1087C5.59875 13.8696 5.89583 13.75 6.25 13.75H20.1875L16.625 10.1875C16.375 9.9375 16.25 9.64042 16.25 9.29625C16.25 8.95292 16.375 8.65625 16.625 8.40625C16.875 8.15625 17.1721 8.03125 17.5163 8.03125C17.8596 8.03125 18.1563 8.15625 18.4063 8.40625L24.125 14.125C24.25 14.25 24.3388 14.3854 24.3913 14.5313C24.4429 14.6771 24.4688 14.8333 24.4688 15C24.4688 15.1667 24.4429 15.3229 24.3913 15.4688C24.3388 15.6146 24.25 15.75 24.125 15.875L18.375 21.625C18.1458 21.8542 17.8596 21.9688 17.5163 21.9688C17.1721 21.9688 16.875 21.8438 16.625 21.5938Z"
        fill="currentColor" />
</svg>