<svg width="31" height="31" viewBox="0 0 31 31" fill="none" xmlns="http://www.w3.org/2000/svg">
    <path fill-rule="evenodd" clip-rule="evenodd"
        d="M15.5 1.875C13.7107 1.875 11.939 2.22742 10.2859 2.91214C8.63288 3.59686 7.13087 4.60047 5.86567 5.86567C4.60047 7.13087 3.59686 8.63288 2.91214 10.2859C2.22742 11.939 1.875 13.7107 1.875 15.5C1.875 17.2893 2.22742 19.061 2.91214 20.7141C3.59686 22.3671 4.60047 23.8691 5.86567 25.1343C7.13087 26.3995 8.63288 27.4031 10.2859 28.0879C11.939 28.7726 13.7107 29.125 15.5 29.125C17.2893 29.125 19.061 28.7726 20.7141 28.0879C22.3671 27.4031 23.8691 26.3995 25.1343 25.1343C26.3995 23.8691 27.4031 22.3671 28.0879 20.7141C28.7726 19.061 29.125 17.2893 29.125 15.5C29.125 13.7107 28.7726 11.939 28.0879 10.2859C27.4031 8.63288 26.3995 7.13087 25.1343 5.86567C23.8691 4.60047 22.3671 3.59686 20.7141 2.91214C19.061 2.22742 17.2893 1.875 15.5 1.875ZM11.8167 6.60766C12.9844 6.12396 14.236 5.875 15.5 5.875C16.764 5.875 18.0156 6.12396 19.1833 6.60766C20.3511 7.09136 21.4121 7.80033 22.3059 8.6941C23.1997 9.58786 23.9086 10.6489 24.3923 11.8167C24.748 12.6753 24.9767 13.5792 25.0729 14.5H20.2714C20.0785 13.5799 19.622 12.7277 18.9471 12.0529C18.0329 11.1386 16.7929 10.625 15.5 10.625C14.2071 10.625 12.9671 11.1386 12.0529 12.0529C11.378 12.7277 10.9215 13.5799 10.7286 14.5H5.92709C6.02328 13.5792 6.25202 12.6753 6.60766 11.8167C7.09136 10.6489 7.80033 9.58786 8.6941 8.6941C9.58786 7.80033 10.6489 7.09136 11.8167 6.60766ZM5.92709 16.5C6.02328 17.4208 6.25202 18.3247 6.60766 19.1833C7.09136 20.3511 7.80033 21.4121 8.6941 22.3059C9.58786 23.1997 10.6489 23.9086 11.8167 24.3923C12.9844 24.876 14.236 25.125 15.5 25.125C16.764 25.125 18.0156 24.876 19.1833 24.3923C20.3511 23.9086 21.4121 23.1997 22.3059 22.3059C23.1997 21.4121 23.9086 20.3511 24.3923 19.1833C24.748 18.3247 24.9767 17.4208 25.0729 16.5H20.2714C20.0785 17.4201 19.622 18.2723 18.9471 18.9471C18.0329 19.8614 16.7929 20.375 15.5 20.375C14.2071 20.375 12.9671 19.8614 12.0529 18.9471C11.378 18.2723 10.9215 17.4201 10.7286 16.5H5.92709ZM13.4671 13.4671C14.0062 12.9279 14.7375 12.625 15.5 12.625C16.2625 12.625 16.9938 12.9279 17.5329 13.4671C18.0721 14.0062 18.375 14.7375 18.375 15.5C18.375 16.2625 18.0721 16.9938 17.5329 17.5329C16.9938 18.0721 16.2625 18.375 15.5 18.375C14.7375 18.375 14.0062 18.0721 13.4671 17.5329C12.9279 16.9938 12.625 16.2625 12.625 15.5C12.625 14.7375 12.9279 14.0062 13.4671 13.4671Z"
        fill="currentColor" />
</svg>