<svg xmlns="http://www.w3.org/2000/svg" width="115" height="19" fill="none">
    <path fill="currentColor"
        d="M4.27994 17.192H.439941V2H7.20794c1.52 0 2.736.184 3.64796.552.912.368 1.568.968 1.968 1.8.4.832.6 1.96.6 3.384 0 1.344-.2 2.44-.6 3.288-.4.832-1.056 1.448-1.968 1.848-.91196.4-2.12796.6-3.64796.6h-2.928v3.72Zm2.304-12.048h-2.304v5.184h2.304c1.136 0 1.896-.192 2.28-.576.384-.384.576-1.056.576-2.016 0-.912-.192-1.568-.576-1.968-.384-.416-1.144-.624-2.28-.624ZM35.8399 17.408h-3.84V2.21604h3.84v6.36h.072c.16 0 .344-.128.552-.384.224-.256.424-.512.6-.768l3.216-5.208h4.176v.072l-2.736 4.416c-.24.4-.512.832-.816 1.296-.304.448-.608.848-.912 1.2-.288.336-.544.544-.768.624v.072c.224.096.48.30396.768.62396.304.304.608.664.912 1.08.32.4.624.8.912 1.2l3.192 4.536v.072h-4.416l-3-4.608v.024c-.096-.16-.248-.368-.456-.624-.192-.272-.4-.52-.624-.744-.208-.224-.392-.336-.552-.336h-.12v6.288ZM46.5546 17.408V2.21604h11.28v3.12h-7.44v2.88h6.456V11.336h-6.456v2.952h7.44v3.12h-11.28ZM59.7499 17.408V2.21604h6.648c1.328 0 2.44.112 3.336.336.896.208 1.616.584 2.16 1.128.544.544.936 1.304 1.176 2.28.24.96.36 2.2.36 3.72 0 1.58396-.12 2.87996-.36 3.88796s-.632 1.792-1.176 2.352c-.544.56-1.264.952-2.16 1.176-.896.208-2.008.312-3.336.312h-6.648Zm6.096-11.95196h-2.256V14.168h2.256c.928 0 1.656-.104 2.184-.312.544-.208.928-.632 1.152-1.272.24-.64.36-1.608.36-2.90396 0-1.232-.12-2.144-.36-2.736-.224-.608-.608-1.008-1.152-1.2-.528-.192-1.256-.288-2.184-.288ZM75.8281 17.408V2.21604h11.28v3.12h-7.44v2.88h6.456V11.336h-6.456v2.952h7.44v3.12h-11.28ZM92.1434 17.408V5.45604h-4.32v-3.24h12.4796v3.24h-4.3196V17.408h-3.84ZM101.6 13.496c.704.24 1.472.432 2.304.576.848.128 1.688.192 2.52.192 1.136 0 1.976-.048 2.52-.144.56-.112.928-.28 1.104-.504.176-.224.264-.512.264-.864 0-.304-.064-.544-.192-.72-.128-.176-.376-.312-.744-.408-.368-.112-.912-.2-1.632-.264l-1.584-.144c-1.184-.112-2.12-.36-2.808-.744-.672-.384-1.152-.89596-1.44-1.53596-.272-.656-.408-1.44-.408-2.352 0-1.088.216-1.968.648-2.64.448-.672 1.168-1.16 2.16-1.464.992-.32 2.312-.48 3.96-.48 2.144 0 3.912.28 5.304.84l-.072 3.264-.072.096c-1.584-.56-3.24-.84-4.968-.84-.832 0-1.472.048-1.92.144-.448.08-.76.216-.936.408-.176.192-.264.464-.264.816 0 .352.056.616.168.792.128.176.376.312.744.408.368.08.904.16 1.608.24l1.512.168c1.28.144 2.264.4 2.952.768.688.368 1.16.864 1.416 1.48796.272.608.408 1.352.408 2.232 0 1.072-.232 1.968-.696 2.688-.448.704-1.184 1.232-2.208 1.584-1.024.352-2.392.528-4.104.528-1.12 0-2.128-.056-3.024-.168-.896-.128-1.768-.296-2.616-.504v-3.384l.096-.072Z" />
    <path fill="currentColor" fill-rule="evenodd"
        d="M22.5.875c-1.1327 0-2.2542.22309-3.3006.65654-1.0465.43345-1.9973 1.06876-2.7982 1.86966-.8009.80091-1.4362 1.75172-1.8697 2.79816-.4334 1.04643-.6565 2.16799-.6565 3.30064 0 1.1327.2231 2.2542.6565 3.3006.4335 1.0465 1.0688 1.9973 1.8697 2.7982s1.7517 1.4362 2.7982 1.8697c1.0464.4334 2.168.6565 3.3006.6565 1.1327 0 2.2542-.2231 3.3006-.6565 1.0465-.4335 1.9973-1.0688 2.7982-1.8697s1.4362-1.7517 1.8697-2.7982c.4334-1.0464.6565-2.1679.6565-3.3006 0-1.13265-.2231-2.25421-.6565-3.30064-.4335-1.04644-1.0688-1.99725-1.8697-2.79816-.8009-.8009-1.7517-1.43621-2.7982-1.86966C24.7542 1.09809 23.6327.875 22.5.875Zm-2.1526 3.42818c.6825-.28269 1.4139-.42818 2.1526-.42818.7387 0 1.4701.14549 2.1526.42818.6825.28268 1.3025.69702 1.8249 1.21934.5223.52233.9366 1.14243 1.2193 1.82489.1541.3719.2674.75835.3386 1.15259h-2.3119c-.1609-.51853-.4461-.99553-.837-1.38649-.6329-.63293-1.4914-.98851-2.3865-.98851-.8951 0-1.7536.35558-2.3865.98851-.3909.39096-.6761.86796-.837 1.38649h-2.3119c.0712-.39424.1845-.78069.3386-1.15259.2827-.68246.697-1.30256 1.2193-1.82489.5224-.52232 1.1424-.93666 1.8249-1.21934ZM16.9646 10.5c.0712.3942.1845.7807.3386 1.1526.2827.6825.697 1.3025 1.2193 1.8249.5224.5223 1.1424.9366 1.8249 1.2193.6825.2827 1.4139.4282 2.1526.4282.7387 0 1.4701-.1455 2.1526-.4282.6824-.2827 1.3025-.697 1.8249-1.2193.5223-.5224.9366-1.1425 1.2193-1.8249.1541-.3719.2674-.7584.3386-1.1526h-2.3119c-.1609.5185-.4461.9955-.837 1.3865-.6329.6329-1.4914.9885-2.3865.9885-.8951 0-1.7536-.3556-2.3865-.9885-.3909-.391-.6761-.868-.837-1.3865h-2.3119Zm4.5631-1.97227c.2579-.25786.6076-.40273.9723-.40273s.7144.14487.9723.40273c.2578.25786.4027.6076.4027.97227 0 .36467-.1449.7144-.4027.9723-.2579.2578-.6076.4027-.9723.4027s-.7144-.1449-.9723-.4027c-.2578-.2579-.4027-.60763-.4027-.9723 0-.36467.1449-.71441.4027-.97227Z"
        clip-rule="evenodd" />
</svg>