<svg xmlns="http://www.w3.org/2000/svg" width="175" height="29" fill="none">
    <path fill="currentColor"
        d="M5.76 25.788H0V3h10.152c2.28 0 4.104.276 5.472.828 1.368.552 2.352 1.452 2.952 2.7.6 1.248.9 2.94.9 5.076 0 2.016-.3 3.66-.9 4.932-.6 1.248-1.584 2.172-2.952 2.772-1.368.6-3.192.9-5.472.9H5.76v5.58ZM9.216 7.716H5.76v7.776h3.456c1.704 0 2.844-.288 3.42-.864.576-.576.864-1.584.864-3.024 0-1.368-.288-2.352-.864-2.952-.576-.624-1.716-.936-3.42-.936ZM56.76 26.112H51V3.324h5.76v9.54h.108c.24 0 .516-.192.828-.576.336-.384.636-.768.9-1.152l4.824-7.812h6.264v.108l-4.104 6.624c-.36.6-.768 1.248-1.224 1.944-.456.672-.912 1.272-1.368 1.8-.432.504-.816.816-1.152.936v.108c.336.144.72.456 1.152.936.456.456.912.996 1.368 1.62.48.6.936 1.2 1.368 1.8l4.788 6.804v.108h-6.624l-4.5-6.912v.036c-.144-.24-.372-.552-.684-.936-.288-.408-.6-.78-.936-1.116-.312-.336-.588-.504-.828-.504h-.18v9.432ZM72.832 26.112V3.324h16.92v4.68h-11.16v4.32h9.684v4.68h-9.684v4.428h11.16v4.68h-16.92ZM92.625 26.112V3.324h9.972c1.992 0 3.66.168 5.004.504 1.344.312 2.424.876 3.24 1.692.816.816 1.404 1.956 1.764 3.42.36 1.44.54 3.3.54 5.58 0 2.376-.18 4.32-.54 5.832-.36 1.512-.948 2.688-1.764 3.528-.816.84-1.896 1.428-3.24 1.764-1.344.312-3.012.468-5.004.468h-9.972Zm9.144-17.928h-3.384v13.068h3.384c1.392 0 2.484-.156 3.276-.468.816-.312 1.392-.948 1.728-1.908.36-.96.54-2.412.54-4.356 0-1.848-.18-3.216-.54-4.104-.336-.912-.912-1.512-1.728-1.8-.792-.288-1.884-.432-3.276-.432ZM116.742 26.112V3.324h16.92v4.68h-11.16v4.32h9.684v4.68h-9.684v4.428h11.16v4.68h-16.92ZM141.215 26.112V8.184h-6.48v-4.86h18.72v4.86h-6.48v17.928h-5.76ZM155.401 20.244c1.056.36 2.208.648 3.456.864 1.272.192 2.532.288 3.78.288 1.704 0 2.964-.072 3.78-.216.84-.168 1.392-.42 1.656-.756s.396-.768.396-1.296c0-.456-.096-.816-.288-1.08-.192-.264-.564-.468-1.116-.612-.552-.168-1.368-.3-2.448-.396l-2.376-.216c-1.776-.168-3.18-.54-4.212-1.116-1.008-.576-1.728-1.344-2.16-2.304-.408-.984-.612-2.16-.612-3.528 0-1.632.324-2.952.972-3.96.672-1.008 1.752-1.74 3.24-2.196 1.488-.48 3.468-.72 5.94-.72 3.216 0 5.868.42 7.956 1.26l-.108 4.896-.108.144c-2.376-.84-4.86-1.26-7.452-1.26-1.248 0-2.208.072-2.88.216-.672.12-1.14.324-1.404.612s-.396.696-.396 1.224.084.924.252 1.188c.192.264.564.468 1.116.612.552.12 1.356.24 2.412.36l2.268.252c1.92.216 3.396.6 4.428 1.152 1.032.552 1.74 1.296 2.124 2.232.408.912.612 2.028.612 3.348 0 1.608-.348 2.952-1.044 4.032-.672 1.056-1.776 1.848-3.312 2.376-1.536.528-3.588.792-6.156.792-1.68 0-3.192-.084-4.536-.252-1.344-.192-2.652-.444-3.924-.756v-5.076l.144-.108Z" />
    <path fill="currentColor" fill-rule="evenodd"
        d="M35.3401.875c-1.7893 0-3.561.35242-5.2141 1.03714-1.653.68472-3.155 1.68833-4.4202 2.95353-1.2652 1.2652-2.2689 2.76721-2.9536 4.42027-.6847 1.65306-1.0371 3.42476-1.0371 5.21406s.3524 3.561 1.0371 5.2141c.6847 1.653 1.6884 3.155 2.9536 4.4202 1.2652 1.2652 2.7672 2.2688 4.4202 2.9536 1.6531.6847 3.4248 1.0371 5.2141 1.0371 1.7892 0 3.561-.3524 5.214-1.0371 1.6531-.6848 3.1551-1.6884 4.4203-2.9536 1.2652-1.2652 2.2688-2.7672 2.9535-4.4202.6848-1.6531 1.0372-3.4248 1.0372-5.2141 0-1.7893-.3524-3.561-1.0372-5.21406-.6847-1.65306-1.6883-3.15507-2.9535-4.42027-1.2652-1.2652-2.7672-2.26881-4.4203-2.95353C38.9011 1.22742 37.1293.875 35.3401.875Zm-3.6833 4.73266c1.1677-.4837 2.4193-.73266 3.6833-.73266 1.264 0 2.5156.24896 3.6833.73266 1.1678.4837 2.2288 1.19267 3.1226 2.08644.8938.89376 1.6027 1.95481 2.0864 3.1226.3557.8586.5844 1.7625.6806 2.6833h-4.8016c-.1928-.9201-.6494-1.7723-1.3242-2.4471-.9142-.9143-2.1542-1.4279-3.4471-1.4279s-2.5329.5136-3.4472 1.4279c-.6748.6748-1.1313 1.527-1.3242 2.4471h-4.8015c.0962-.9208.3249-1.8247.6805-2.6833.4837-1.16779 1.1927-2.22884 2.0865-3.1226.8937-.89377 1.9548-1.60274 3.1226-2.08644ZM25.7672 15.5c.0962.9208.3249 1.8247.6805 2.6833.4837 1.1678 1.1927 2.2288 2.0865 3.1226.8937.8938 1.9548 1.6027 3.1226 2.0864 1.1677.4837 2.4193.7327 3.6833.7327 1.264 0 2.5156-.249 3.6833-.7327 1.1678-.4837 2.2288-1.1926 3.1226-2.0864.8938-.8938 1.6027-1.9548 2.0864-3.1226.3557-.8586.5844-1.7625.6806-2.6833h-4.8016c-.1928.9201-.6494 1.7723-1.3242 2.4471-.9142.9143-2.1542 1.4279-3.4471 1.4279s-2.5329-.5136-3.4472-1.4279c-.6748-.6748-1.1313-1.527-1.3242-2.4471h-4.8015Zm7.54-3.0329c.5391-.5392 1.2704-.8421 2.0329-.8421.7625 0 1.4938.3029 2.0329.8421.5392.5391.8421 1.2704.8421 2.0329 0 .7625-.3029 1.4938-.8421 2.0329-.5391.5392-1.2704.8421-2.0329.8421-.7625 0-1.4938-.3029-2.0329-.8421-.5392-.5391-.8421-1.2704-.8421-2.0329 0-.7625.3029-1.4938.8421-2.0329Z"
        clip-rule="evenodd" />
</svg>